# xmcd
# Copyright (C) 1995-1998 Ti Kan
#
# Track frame offsets:
#       150
#       53191
#       122994
#       177057
#
# Disc length: 3083 seconds
#
# Revision: 0
# Processed by: cddbd v1.5.2PL0 Copyright (c) Steve Scherf et al.
# Submitted via: CD-Import v1.0
#
DISCID=300c0904
DTITLE=Dr Dolittle - 
DYEAR=1900
DGENRE=
TTITLE0=Dr. Dolittle 2.1
TTITLE1=Dr. Dolittle 2.2
TTITLE2=Dr. Dolittle 2.3
TTITLE3=Dr. Dolittle 2.4
EXTD=
EXTT0=
EXTT1=
EXTT2=
EXTT3=
PLAYORDER=
